<?xml version="1.0" encoding="utf-8"?>
<!-- Generator: Adobe Illustrator 18.1.1, SVG Export Plug-In . SVG Version: 6.00 Build 0)  -->
<svg version="1.1" id="Layer_1" xmlns="http://www.w3.org/2000/svg" xmlns:xlink="http://www.w3.org/1999/xlink" x="0px" y="0px"
	 viewBox="-289 381 32 32" enable-background="new -289 381 32 32" xml:space="preserve">
<circle cx="-241" cy="397" r="15"/>
<g id="icomoon-ignore">
</g>
<path d="M-273,384.2h-8.5c-2.6,0-4.3,1.7-4.3,4.3v17.7c0,0.8,0.3,3.6,4.4,3.6h21.2v-25.6H-273z M-281.5,385.3h20.3v17.6h-20.3
	c-1.4,0-2.5,0.4-3.2,1.1v-15.5C-284.7,386.5-283.5,385.3-281.5,385.3L-281.5,385.3z M-281.4,408.7c-2.4,0-3.2-1.1-3.3-2.2
	c0-1.6,1.2-2.6,3.2-2.6h20.3v4.8H-281.4z"/>
<g>
	<polygon points="-275.6,398.8 -275.6,398.8 -275.6,398.8 	"/>
	<polygon points="-269.3,390.3 -273,393.6 -276.7,390.2 -276.7,397.8 -275.6,397.8 -275.6,392.6 -273,395 -270.4,392.6 
		-270.4,397.8 -269.3,397.8 	"/>
</g>
<path fill="#FFFFFF" d="M-241,389.5h-5c-1.5,0-2.5,1-2.5,2.5v10.4c0,0.5,0.2,2.1,2.6,2.1h12.4v-15H-241z M-246,390.1h11.9v10.3H-246
	c-0.8,0-1.4,0.2-1.9,0.7V392C-247.9,390.9-247.1,390.1-246,390.1L-246,390.1z M-245.9,403.9c-1.4,0-1.8-0.7-1.9-1.3
	c0-1,0.7-1.5,1.9-1.5h11.9v2.8H-245.9z"/>
<g>
	<polygon fill="#FFFFFF" points="-242.5,398.1 -242.5,398.1 -242.5,398.1 	"/>
	<polygon fill="#FFFFFF" points="-238.8,393.1 -241,395 -243.2,393 -243.2,397.5 -242.5,397.5 -242.5,394.4 -241,395.8 
		-239.5,394.4 -239.5,397.5 -238.8,397.5 	"/>
</g>
</svg>
